# xmcd
#
# Track frame offsets:
#  150
#  32247
#  43854
#  64396
#  90100
#  117081
#  133663
#  155724
#  181727
#  199618
#  215603
#  238122
#
# Disc length: 3347 seconds
#
# Revision: 0
# Processed by: cddbd v1.5.2PL0 Copyright (c) Steve Scherf et al.
# Submitted via: Collectorz.com_Music_Collector 6.9
#
DISCID=a70d110c
DTITLE=Orpheu - Amanhã
DYEAR=2001
DGENRE=Portuguese
TTITLE0=A Espada de Dois Gumes
TTITLE1=Canto D'iemanjá
TTITLE2=Entre Ferro e Fogo
TTITLE3=Descida Aos Infernos
TTITLE4=A Sexta Hora
TTITLE5=Um Triste Engano
TTITLE6=A Canção Que Vos Deixo
TTITLE7=Dia de Mercado
TTITLE8=O Teu Reflexo
TTITLE9=Ventura
TTITLE10=Nos Olhos de Minha Mãe
TTITLE11=Sorrir de Madrugada
EXTD=
EXTT0=
EXTT1=
EXTT2=
EXTT3=
EXTT4=
EXTT5=
EXTT6=
EXTT7=
EXTT8=
EXTT9=
EXTT10=
EXTT11=
PLAYORDER=
